{
  "format": {
    "filename": "http://hal9000:7000/data/Euro_2020_-_France_vs._Switzerland/20210628-FRA-SWI-EK20_1EN.ts",
    "nb_streams": 3,
    "nb_programs": 1,
    "format_name": "mpegts",
    "format_long_name": "MPEG-TS (MPEG-2 Transport Stream)",
    "start_time": 0.2,
    "duration": 3041.8,
    "size": 3221950016,
    "bit_rate": 8473798,
    "probe_score": 50
  },
  "streams": [
    {
      "index": 0,
      "codec_name": "h264",
      "codec_long_name": "H.264 / AVC / MPEG-4 AVC / MPEG-4 part 10",
      "profile": "Main",
      "codec_type": "video",
      "codec_tag_string": "[27][0][0][0]",
      "codec_tag": "0x001b",
      "width": 1920,
      "height": 1080,
      "has_b_frames": 2,
      "sample_aspect_ratio": "1:1",
      "display_aspect_ratio": "16:9",
      "pix_fmt": "yuv420p",
      "level": 40,
      "chroma_location": "left",
      "refs": 1,
      "is_avc": "false",
      "nal_length_size": "0",
      "r_frame_rate": "25/1",
      "avg_frame_rate": "25/1",
      "time_base": "1/90000",
      "start_pts": 18000,
      "start_time": 0.2,
      "duration_ts": 273762000,
      "duration": 3041.8,
      "bit_rate": 0,
      "max_bit_rate": 0,
      "bits_per_raw_sample": 8,
      "bits_per_sample": 0,
      "nb_frames": 0,
      "sample_rate": 0,
      "channels": 0,
      "disposition": {
        "_default": 0,
        "dub": 0,
        "original": 0,
        "comment": 0,
        "lyrics": 0,
        "karaoke": 0,
        "forced": 0,
        "hearing_impaired": 0,
        "visual_impaired": 0,
        "clean_effects": 0,
        "attached_pic": 0,
        "captions": 0,
        "descriptions": 0,
        "metadata": 0
      }
    },
    {
      "index": 1,
      "codec_name": "ac3",
      "codec_long_name": "ATSC A/52A (AC-3)",
      "codec_type": "audio",
      "codec_tag_string": "[6][0][0][0]",
      "codec_tag": "0x0006",
      "width": 0,
      "height": 0,
      "has_b_frames": 0,
      "level": 0,
      "refs": 0,
      "r_frame_rate": "0/0",
      "avg_frame_rate": "0/0",
      "time_base": "1/90000",
      "start_pts": 18000,
      "start_time": 0.2,
      "duration_ts": 273761280,
      "duration": 3041.792,
      "bit_rate": 192000,
      "max_bit_rate": 0,
      "bits_per_raw_sample": 0,
      "bits_per_sample": 0,
      "nb_frames": 0,
      "sample_fmt": "fltp",
      "sample_rate": 48000,
      "channels": 2,
      "channel_layout": "stereo",
      "disposition": {
        "_default": 0,
        "dub": 0,
        "original": 0,
        "comment": 0,
        "lyrics": 0,
        "karaoke": 0,
        "forced": 0,
        "hearing_impaired": 0,
        "visual_impaired": 0,
        "clean_effects": 0,
        "attached_pic": 0,
        "captions": 0,
        "descriptions": 0,
        "metadata": 0
      },
      "tags": {
        "language": "eng"
      }
    },
    {
      "index": 2,
      "codec_name": "mp2",
      "codec_long_name": "MP2 (MPEG audio layer 2)",
      "codec_type": "audio",
      "codec_tag_string": "[3][0][0][0]",
      "codec_tag": "0x0003",
      "width": 0,
      "height": 0,
      "has_b_frames": 0,
      "level": 0,
      "refs": 0,
      "r_frame_rate": "0/0",
      "avg_frame_rate": "0/0",
      "time_base": "1/90000",
      "start_pts": 18000,
      "start_time": 0.2,
      "duration_ts": 273760560,
      "duration": 3041.784,
      "bit_rate": 160000,
      "max_bit_rate": 0,
      "bits_per_raw_sample": 0,
      "bits_per_sample": 0,
      "nb_frames": 0,
      "sample_fmt": "fltp",
      "sample_rate": 48000,
      "channels": 2,
      "channel_layout": "stereo",
      "disposition": {
        "_default": 0,
        "dub": 0,
        "original": 0,
        "comment": 0,
        "lyrics": 0,
        "karaoke": 0,
        "forced": 0,
        "hearing_impaired": 0,
        "visual_impaired": 0,
        "clean_effects": 0,
        "attached_pic": 0,
        "captions": 0,
        "descriptions": 0,
        "metadata": 0
      },
      "tags": {
        "language": "NAR"
      }
    }
  ],
  "chapters": []
}